<svg xmlns="http://www.w3.org/2000/svg" xmlns:xlink="http://www.w3.org/1999/xlink" width="96" height="96" id="graph"><defs><linearGradient id="b" x1="868.253" x2="937.656" y1="521.354" y2="588.736" gradientTransform="translate(-2653.937 -629.677) scale(3.0757)" gradientUnits="userSpaceOnUse" xlink:href="#a"></linearGradient><linearGradient id="a"><stop offset="0" stop-color="#24f3d2"></stop><stop offset=".394" stop-color="#0674f0"></stop><stop offset=".507" stop-color="#6961b5"></stop><stop offset=".813" stop-color="#f34660"></stop><stop offset="1" stop-color="#ee078d"></stop></linearGradient></defs><g transform="translate(0 -956.362)"><rect width="96" height="96" y="956.362" fill="url(#b)" rx="20.288" ry="20.288"></rect><path style="line-height:normal;text-indent:0;text-align:start;text-decoration-line:none;text-decoration-style:solid;text-decoration-color:#000;text-transform:none;block-progression:tb;isolation:auto;mix-blend-mode:normal" fill="#fff" fill-rule="evenodd" d="M21.491 979.362a.5.5 0 0 0-.492.507V1026.362h-1.492a.5.5 0 1 0 0 1H21v1.494a.5.5 0 1 0 1 0v-1.494h55.508a.5.5 0 1 0 0-1H76v-14.657l-4-5.715-.431.616-4.077-5.604-3.285 4.694-3.69-4.612-4.706 5.381-2.28-2.28-2.728 2.274-3.371-3.37-1.912 2.73-4.969-7.809-5.117 6.254-5.084-8.643-2.545 8.483-2.291-3.059-3.514 4.393v-25.569a.5.5 0 0 0-.508-.507zm9.157 18.742 9.814 16.683 7.106-10.15 5.955 5.957 6.959-7.953 8.045 10.055 3.472-4.961 3 4.285v14.342H22.171l8.477-28.258zm9.8 1.611 4.452 6.99-4.364 6.233-4.562-7.756 4.475-5.467zm-14.962 2.963 1.963 2.615-5.45 18.162v-16.418l3.487-4.359zm42.021.045 3.455 4.75-2.49 3.557-3.615-4.52 2.65-3.787zm-14.039 2.816 1.68 1.68-1.672 1.912-1.963-1.963 1.955-1.629z" color="#000" font-family="sans-serif" font-weight="400" overflow="visible"></path></g></svg>